<svg xmlns="http://www.w3.org/2000/svg" xmlns:xlink="http://www.w3.org/1999/xlink" version="1.1" style="" xml:space="preserve" width="58" height="58"><rect id="backgroundrect" width="100%" height="100%" x="0" y="0" fill="none" stroke="none"/>
















<g class="currentLayer" style=""><title>Layer 1</title><g id="svg_1" class="selected" stroke="#b6b6b6" stroke-opacity="1" fill="#0404b8" fill-opacity="1" opacity="0.79">
	<path style="" d="M23.936,54.07c0.539-0.12,0.879-0.654,0.76-1.193c-0.121-0.539-0.663-0.874-1.193-0.759   l-7.252,1.614c-0.003-0.002-0.007-0.003-0.01-0.005l-0.171,0.045l-0.326,0.073c-0.027,0.006-0.047,0.024-0.073,0.032L0,58   l4.988-14.963C2.457,38.78,1,33.812,1,28.5C1,12.76,13.76,0,29.5,0S58,12.76,58,28.5S45.24,57,29.5,57   c-3.603,0-7.048-0.673-10.221-1.894L23.936,54.07z" id="svg_2" stroke="#b6b6b6" stroke-opacity="1" fill="#0404b8" fill-opacity="1" opacity="0.79"/>
</g><g id="svg_3">
</g><g id="svg_4">
</g><g id="svg_5">
</g><g id="svg_6">
</g><g id="svg_7">
</g><g id="svg_8">
</g><g id="svg_9">
</g><g id="svg_10">
</g><g id="svg_11">
</g><g id="svg_12">
</g><g id="svg_13">
</g><g id="svg_14">
</g><g id="svg_15">
</g><g id="svg_16">
</g><g id="svg_17">
</g></g></svg>